<?xml version="1.0" encoding="utf-8"?>
<!-- Generator: Adobe Illustrator 19.1.1, SVG Export Plug-In . SVG Version: 6.00 Build 0)  -->
<svg version="1.1" xmlns="http://www.w3.org/2000/svg" xmlns:xlink="http://www.w3.org/1999/xlink" x="0px" y="0px"
	 viewBox="0 0 600 600" style="enable-background:new 0 0 600 600;" xml:space="preserve">
<style type="text/css">
	.st0{fill:none;stroke:#F5F5F5;stroke-width:10;stroke-miterlimit:10;}
	.st1{fill:#F5F5F5;}
	.st2{fill:#F5F5F5;stroke:#F5F5F5;stroke-miterlimit:10;}
</style>
<g id="math">
</g>
<g id="science">
	<path id="outline_1_" class="st0" d="M541.3,589H57.7c-26.4,0-48-21.6-48-48V57.5c0-26.4,21.6-48,48-48h483.5c26.4,0,48,21.6,48,48
		V541C589.3,567.4,567.7,589,541.3,589z"/>
	<ellipse class="st0" cx="300.1" cy="300.3" rx="262.7" ry="91.9"/>
	
		<ellipse transform="matrix(0.4822 0.876 -0.876 0.4822 418.4025 -107.3957)" class="st0" cx="300.1" cy="300.3" rx="262.7" ry="91.9"/>
	
		<ellipse transform="matrix(-0.4822 0.876 -0.876 -0.4822 706.5109 180.0247)" class="st0" cx="300.1" cy="298.8" rx="262.7" ry="91.9"/>
	<circle class="st2" cx="300.1" cy="300.1" r="30.5"/>
	<circle class="st2" cx="248.1" cy="90.3" r="21.4"/>
	<circle class="st2" cx="241.4" cy="513" r="21.4"/>
	<circle class="st2" cx="506.6" cy="244.6" r="21.4"/>
</g>
<g id="Layer_3">
</g>
</svg>
