<?xml version="1.0" encoding="utf-8"?>
<!-- Generator: Adobe Illustrator 19.1.1, SVG Export Plug-In . SVG Version: 6.00 Build 0)  -->
<svg version="1.1" xmlns="http://www.w3.org/2000/svg" xmlns:xlink="http://www.w3.org/1999/xlink" x="0px" y="0px"
	 viewBox="0 0 600 600" style="enable-background:new 0 0 600 600;" xml:space="preserve">
<style type="text/css">
	.st0{fill:none;stroke:#F5F5F5;stroke-width:10;stroke-miterlimit:10;}
	.st1{fill:#F5F5F5;}
	.st2{fill:#F5F5F5;stroke:#F5F5F5;stroke-miterlimit:10;}
</style>
<g id="math">
	<path id="outline" class="st0" d="M541.3,589H57.7c-26.4,0-48-21.6-48-48V57.5c0-26.4,21.6-48,48-48h483.5c26.4,0,48,21.6,48,48
		V541C589.3,567.4,567.7,589,541.3,589z"/>
	<g id="x">
		<g>
			<g>
				<path class="st1" d="M75.8,89.9c17.1,17.1,34.2,34.2,51.3,51.3c27.3,27.3,54.5,54.5,81.8,81.8c6.3,6.3,12.5,12.5,18.8,18.8
					c6.7,6.7,18.9,7.2,25.5,0c6.6-7.2,7.1-18.3,0-25.5C236,199.1,218.9,182,201.8,165c-27.3-27.3-54.5-54.5-81.8-81.8
					c-6.3-6.3-12.5-12.5-18.8-18.8c-6.7-6.7-18.9-7.2-25.5,0C69.2,71.6,68.7,82.8,75.8,89.9L75.8,89.9z"/>
			</g>
		</g>
		<g>
			<g>
				<path class="st1" d="M226.5,63.3c-17.1,17.1-34.2,34.2-51.3,51.3c-27.3,27.3-54.5,54.5-81.8,81.8c-6.3,6.3-12.5,12.5-18.8,18.8
					c-6.7,6.7-7.2,18.9,0,25.5c7.2,6.6,18.3,7.1,25.5,0c17.1-17.1,34.2-34.2,51.3-51.3c27.3-27.3,54.5-54.5,81.8-81.8
					c6.3-6.3,12.5-12.5,18.8-18.8c6.7-6.7,7.2-18.9,0-25.5C244.8,56.7,233.6,56.2,226.5,63.3L226.5,63.3z"/>
			</g>
		</g>
	</g>
	<g id="divide">
		<g>
			<g>
				<path class="st1" d="M326.3,177.6c23.5,0,46.9,0,70.4,0c37.2,0,74.3,0,111.5,0c8.5,0,17.1,0,25.6,0c9.4,0,18.4-8.3,18-18
					c-0.4-9.8-7.9-18-18-18c-23.5,0-46.9,0-70.4,0c-37.2,0-74.3,0-111.5,0c-8.5,0-17.1,0-25.6,0c-9.4,0-18.4,8.3-18,18
					C308.8,169.4,316.2,177.6,326.3,177.6L326.3,177.6z"/>
			</g>
		</g>
		<circle class="st2" cx="430" cy="90.3" r="36.5"/>
		<circle class="st2" cx="430" cy="229" r="36.5"/>
	</g>
	<g id="plus">
		<g>
			<g>
				<path class="st1" d="M145,349.1c0,19.6,0,39.2,0,58.7c0,31,0,62.1,0,93.1c0,7.2,0,14.4,0,21.5c0,9.4,8.3,18.4,18,18
					c9.8-0.4,18-7.9,18-18c0-19.6,0-39.2,0-58.7c0-31,0-62.1,0-93.1c0-7.2,0-14.4,0-21.5c0-9.4-8.3-18.4-18-18
					C153.2,331.5,145,339,145,349.1L145,349.1z"/>
			</g>
		</g>
		<g>
			<g>
				<path class="st1" d="M249.7,416.5c-19.6,0-39.2,0-58.7,0c-31,0-62.1,0-93.1,0c-7.2,0-14.4,0-21.5,0c-9.4,0-18.4,8.3-18,18
					c0.4,9.8,7.9,18,18,18c19.6,0,39.2,0,58.7,0c31,0,62.1,0,93.1,0c7.2,0,14.4,0,21.5,0c9.4,0,18.4-8.3,18-18
					C267.2,424.7,259.8,416.5,249.7,416.5L249.7,416.5z"/>
			</g>
		</g>
	</g>
	<g id="minus">
		<g>
			<path class="st1" d="M326.3,452.8c23.5,0,46.9,0,70.4,0c37.2,0,74.3,0,111.5,0c8.5,0,17.1,0,25.6,0c9.4,0,18.4-8.3,18-18
				c-0.4-9.8-7.9-18-18-18c-23.5,0-46.9,0-70.4,0c-37.2,0-74.3,0-111.5,0c-8.5,0-17.1,0-25.6,0c-9.4,0-18.4,8.3-18,18
				C308.8,444.5,316.2,452.8,326.3,452.8L326.3,452.8z"/>
		</g>
	</g>
</g>
<g id="science">
</g>
<g id="Layer_3">
</g>
</svg>
