<?xml version="1.0" encoding="utf-8"?>
<!-- Generator: Adobe Illustrator 19.1.1, SVG Export Plug-In . SVG Version: 6.00 Build 0)  -->
<svg version="1.1" xmlns="http://www.w3.org/2000/svg" xmlns:xlink="http://www.w3.org/1999/xlink" x="0px" y="0px"
	 viewBox="0 0 600 600" style="enable-background:new 0 0 600 600;" xml:space="preserve">
<style type="text/css">
	.st0{fill:none;stroke:#F5F5F5;stroke-width:10;stroke-miterlimit:10;}
	.st1{fill:#F5F5F5;}
	.st2{fill:#F5F5F5;stroke:#F5F5F5;stroke-miterlimit:10;}
</style>
<g id="math">
</g>
<g id="science">
</g>
<g id="Layer_3">
	<path id="outline_2_" class="st0" d="M537.8,586H60.2c-26.4,0-48-21.6-48-48V60.5c0-26.4,21.6-48,48-48h477.5c26.4,0,48,21.6,48,48
		V538C585.8,564.4,564.2,586,537.8,586z"/>
	<g>
		<g>
			<path class="st1" d="M457.5,440.1c-30.2,0-60.4,0-90.6,0c-53.1,0-106.3,0-159.4,0c-18.1,0-36.3,0-54.4,0c-3.9,0-7.7,0-11.6,0
				c-12.3,0-24.2-3.7-34.1-11.1c-13.7-10.4-21.7-26.8-21.9-43.9c0-4.6,0-9.2,0-13.8c0-24,0-48.1,0-72.1c0-23.2,0-46.5,0-69.7
				c0-5.3-0.2-10.6,0.3-15.9c1.7-18.3,13.2-34.7,29.3-43.2c13-6.9,26.7-6.3,40.8-6.3c18.9,0,37.7,0,56.6,0c53.6,0,107.1,0,160.7,0
				c20.6,0,41.2,0,61.8,0c9.9,0,20.6-0.9,30.5,0.5c18.3,2.7,34,14.8,41.9,31.4c4.1,8.7,5.1,17.9,5.1,27.4c0,20.6,0,41.3,0,61.9
				c0,25.6,0,51.3,0,76.9c0,7,0,14,0,21c0,11.9-2.9,23.1-9.6,33.1C492.7,431.1,475.5,439.9,457.5,440.1c-7.7,0.1-7.7,12.1,0,12
				c37-0.4,66.7-30.7,67-67.6c0.1-17.6,0-35.1,0-52.7c0-27.3,0-54.6,0-81.9c0-17.4,2.1-37.2-4-53.8c-10.3-27.6-36.4-44.2-65.5-44.2
				c-13.7,0-27.4,0-41.1,0c-53.1,0-106.2,0-159.2,0c-37.4,0-74.9-0.1-112.3,0c-30.5,0-58.1,19.4-66.4,49.2c-2.2,8-2.4,16.1-2.4,24.4
				c0,9.3,0,18.7,0,28c0,43.8-0.4,87.6,0,131.4c0.3,36.7,30.3,66.8,67.1,67.1c9.9,0.1,19.8,0,29.6,0c50.9,0,101.8,0,152.7,0
				c42.5,0,85.1,0,127.6,0c2.3,0,4.6,0,7,0C465.2,452.1,465.2,440.1,457.5,440.1z"/>
		</g>
	</g>
	<g>
		<g>
			<path class="st1" d="M452.9,418.2c-28.5,0-57,0-85.4,0c-50.8,0-101.5,0-152.3,0c-18,0-36,0-54,0c-13.4,0-26.5,0.6-39-5.7
				c-15.7-7.9-26.9-22.7-30-40c-1.1-5.8-0.8-11.9-0.8-17.8c0-22,0-43.9,0-65.9c0-22.2,0-44.4,0-66.6c0-6-0.3-12.1,0.8-18.1
				c3.1-17.3,14.3-32.1,30-40c12.4-6.2,25.4-5.7,38.7-5.7c17.8,0,35.6,0,53.4,0c51,0,102.1,0,153.1,0c28.5,0,57-0.3,85.4,0
				c31.1,0.3,54.9,25.8,55,56.4c0,18.1,0,36.1,0,54.2c0,24.5,0,49,0,73.5c0,6.4,0,12.8,0,19.2c0,12.5-3.5,24.5-11.1,34.6
				C486.3,410.1,470,418,452.9,418.2c-7.7,0.1-7.7,12.1,0,12c36.7-0.4,66.7-30.4,67-67.1c0.1-16.4,0-32.8,0-49.2
				c0-25.6,0-51.2,0-76.8c0-19.8,1.3-39.4-9.2-57.3c-13.1-22.2-36.4-33.2-61.6-33.2c-14,0-27.9,0-41.9,0c-51,0-101.9,0-152.9,0
				c-35.4,0-70.8-0.1-106.2,0c-29.2,0-55.4,17.6-65.1,45.4c-5.7,16.3-3.6,35.7-3.6,52.7c0,26.2,0,52.3,0,78.5c0,10,0,20.1,0,30.1
				c0,5.8-0.2,11.8,0.5,17.6c4.1,33.8,33,59.2,67,59.4c10.5,0.1,21,0,31.4,0c49.1,0,98.1,0,147.2,0c40.3,0,80.5,0,120.8,0
				c2.2,0,4.4,0,6.5,0C460.6,430.2,460.6,418.2,452.9,418.2z"/>
		</g>
	</g>
	<g>
		<g>
			<path class="st1" d="M294.1,152.5c0,33,0,66.1,0,99.1c0,52.7,0,105.4,0,158.1c0,12.1,0,24.2,0,36.4c0,7.7,12,7.7,12,0
				c0-33,0-66.1,0-99.1c0-52.7,0-105.4,0-158.1c0-12.1,0-24.2,0-36.4C306.1,144.8,294.1,144.8,294.1,152.5L294.1,152.5z"/>
		</g>
	</g>
	<g>
		<g>
			<path class="st1" d="M117.8,220.4c40.3,0,80.7,0,121,0c5.8,0,11.5,0,17.3,0c7.7,0,7.7-12,0-12c-40.3,0-80.7,0-121,0
				c-5.8,0-11.5,0-17.3,0C110.1,208.4,110.1,220.4,117.8,220.4L117.8,220.4z"/>
		</g>
	</g>
	<g>
		<g>
			<path class="st1" d="M117.8,362.1c40.3,0,80.7,0,121,0c5.8,0,11.5,0,17.3,0c7.7,0,7.7-12,0-12c-40.3,0-80.7,0-121,0
				c-5.8,0-11.5,0-17.3,0C110.1,350.1,110.1,362.1,117.8,362.1L117.8,362.1z"/>
		</g>
	</g>
	<g>
		<g>
			<path class="st1" d="M117.8,326.7c40.3,0,80.7,0,121,0c5.8,0,11.5,0,17.3,0c7.7,0,7.7-12,0-12c-40.3,0-80.7,0-121,0
				c-5.8,0-11.5,0-17.3,0C110.1,314.7,110.1,326.7,117.8,326.7L117.8,326.7z"/>
		</g>
	</g>
	<g>
		<g>
			<path class="st1" d="M117.8,291.3c40.3,0,80.7,0,121,0c5.8,0,11.5,0,17.3,0c7.7,0,7.7-12,0-12c-40.3,0-80.7,0-121,0
				c-5.8,0-11.5,0-17.3,0C110.1,279.3,110.1,291.3,117.8,291.3L117.8,291.3z"/>
		</g>
	</g>
	<g>
		<g>
			<path class="st1" d="M117.8,255.8c40.3,0,80.7,0,121,0c5.8,0,11.5,0,17.3,0c7.7,0,7.7-12,0-12c-40.3,0-80.7,0-121,0
				c-5.8,0-11.5,0-17.3,0C110.1,243.8,110.1,255.8,117.8,255.8L117.8,255.8z"/>
		</g>
	</g>
	<g>
		<g>
			<path class="st1" d="M336.3,220.4c40.3,0,80.7,0,121,0c5.8,0,11.5,0,17.3,0c7.7,0,7.7-12,0-12c-40.3,0-80.7,0-121,0
				c-5.8,0-11.5,0-17.3,0C328.6,208.4,328.6,220.4,336.3,220.4L336.3,220.4z"/>
		</g>
	</g>
	<g>
		<g>
			<path class="st1" d="M336.3,362.1c40.3,0,80.7,0,121,0c5.8,0,11.5,0,17.3,0c7.7,0,7.7-12,0-12c-40.3,0-80.7,0-121,0
				c-5.8,0-11.5,0-17.3,0C328.6,350.1,328.6,362.1,336.3,362.1L336.3,362.1z"/>
		</g>
	</g>
	<g>
		<g>
			<path class="st1" d="M336.3,326.7c40.3,0,80.7,0,121,0c5.8,0,11.5,0,17.3,0c7.7,0,7.7-12,0-12c-40.3,0-80.7,0-121,0
				c-5.8,0-11.5,0-17.3,0C328.6,314.7,328.6,326.7,336.3,326.7L336.3,326.7z"/>
		</g>
	</g>
	<g>
		<g>
			<path class="st1" d="M336.3,291.3c40.3,0,80.7,0,121,0c5.8,0,11.5,0,17.3,0c7.7,0,7.7-12,0-12c-40.3,0-80.7,0-121,0
				c-5.8,0-11.5,0-17.3,0C328.6,279.3,328.6,291.3,336.3,291.3L336.3,291.3z"/>
		</g>
	</g>
	<g>
		<g>
			<path class="st1" d="M336.3,255.8c40.3,0,80.7,0,121,0c5.8,0,11.5,0,17.3,0c7.7,0,7.7-12,0-12c-40.3,0-80.7,0-121,0
				c-5.8,0-11.5,0-17.3,0C328.6,243.8,328.6,255.8,336.3,255.8L336.3,255.8z"/>
		</g>
	</g>
</g>
</svg>
